# xmcd
#
# Track frame offsets:
# 150
# 15864
# 32254
# 50856
# 72533
# 92598
# 110451
# 129728
# 149794
# 168549
# 185691
# 208232
# 224812
# 247954
# 266033
# 287600
#
# Disc length: 4148 seconds
#
# Revision: 0
# Processed by: cddbd v1.5.1PL0 Copyright (c) Steve Scherf et al.
# Submitted via: Audion 3.0.2 (http://www.panic.com/audion/)
#
DISCID=01103210
DTITLE=T.I - Urband Legend
DYEAR=1900
DGENRE=
TTITLE0=Tha King
TTITLE1=Motivation
TTITLE2=U Don't Know Me
TTITLE3=ASAP
TTITLE4=Prayin for help
TTITLE5=Why you mad me
TTITLE6=Get Loose - featuring 
TTITLE7=Nelly
TTITLE8=The Greatest  - Featuring Mannie Fresh
TTITLE9=Get Ya S*** Together - Featuring Lil' Kim
TTITLE10=Freak Though - Featuring Pharrell Wlliam
TTITLE11=Coundown
TTITLE12=Bring Em Out
TTITLE13=Limelight  - Featuring P$C And Big
TTITLE14=Chillin With My B**** - Featuring Jazze Pha
TTITLE15=Stand Up - Featuring Trick Daddy, Lil Jon And Lil Wayne
EXTD=
EXTT0=
EXTT1=
EXTT2=
EXTT3=
EXTT4=
EXTT5=
EXTT6=
EXTT7=
EXTT8=
EXTT9=
EXTT10=
EXTT11=
EXTT12=
EXTT13=
EXTT14=
EXTT15=
PLAYORDER=
